grf
version=1
nRows=21
nColumns=46
inDegrees=yes
endheader
time	ground_force_1_vx	ground_force_1_vy	ground_force_1_vz	ground_force_1_px	ground_force_1_py	ground_force_1_pz	ground_moment_1_mx	ground_moment_1_my	ground_moment_1_mz	ground_force_2_vx	ground_force_2_vy	ground_force_2_vz	ground_force_2_px	ground_force_2_py	ground_force_2_pz	ground_moment_2_mx	ground_moment_2_my	ground_moment_2_mz	ground_force_3_vx	ground_force_3_vy	ground_force_3_vz	ground_force_3_px	ground_force_3_py	ground_force_3_pz	ground_moment_3_mx	ground_moment_3_my	ground_moment_3_mz	ground_force_4_vx	ground_force_4_vy	ground_force_4_vz	ground_force_4_px	ground_force_4_py	ground_force_4_pz	ground_moment_4_mx	ground_moment_4_my	ground_moment_4_mz	ground_force_5_vx	ground_force_5_vy	ground_force_5_vz	ground_force_5_px	ground_force_5_py	ground_force_5_pz	ground_moment_5_mx	ground_moment_5_my	ground_moment_5_mz
5.490000	0.000000	0.000000	0.000000	0.000000	0.000000	0.000000	0.000000	0.000000	0.000000	0.000000	0.000000	0.000000	0.000000	0.000000	0.000000	0.000000	0.000000	0.000000	0.000000	0.000000	0.000000	0.000000	0.000000	0.000000	0.000000	0.000000	0.000000	11.618335	508.410208	-74.141046	0.198998	0.000000	-1.070696	0.000000	5.093000	0.000000	-7.452537	517.730308	71.502623	0.207628	0.000000	-1.394281	-0.000000	-6.869173	-0.000000
5.490500	0.000000	0.000000	0.000000	0.000000	0.000000	0.000000	0.000000	0.000000	0.000000	0.000000	0.000000	0.000000	0.000000	0.000000	0.000000	0.000000	0.000000	0.000000	0.000000	0.000000	0.000000	0.000000	0.000000	0.000000	0.000000	0.000000	0.000000	11.621855	508.409987	-74.097788	0.199007	0.000000	-1.070696	0.000000	5.096276	0.000000	-7.439003	517.711235	71.470999	0.207636	0.000000	-1.394290	-0.000000	-6.865309	-0.000000
5.491000	0.000000	0.000000	0.000000	0.000000	0.000000	0.000000	0.000000	0.000000	0.000000	0.000000	0.000000	0.000000	0.000000	0.000000	0.000000	0.000000	0.000000	0.000000	0.000000	0.000000	0.000000	0.000000	0.000000	0.000000	0.000000	0.000000	0.000000	11.625150	508.413734	-74.055269	0.199015	0.000000	-1.070697	0.000000	5.099553	0.000000	-7.423125	517.691211	71.439406	0.207643	0.000000	-1.394298	-0.000000	-6.861414	-0.000000
5.491500	0.000000	0.000000	0.000000	0.000000	0.000000	0.000000	0.000000	0.000000	0.000000	0.000000	0.000000	0.000000	0.000000	0.000000	0.000000	0.000000	0.000000	0.000000	0.000000	0.000000	0.000000	0.000000	0.000000	0.000000	0.000000	0.000000	0.000000	11.628202	508.421376	-74.013551	0.199023	0.000000	-1.070699	0.000000	5.102837	0.000000	-7.404949	517.670148	71.407899	0.207649	0.000000	-1.394306	-0.000000	-6.857490	-0.000000
5.492000	0.000000	0.000000	0.000000	0.000000	0.000000	0.000000	0.000000	0.000000	0.000000	0.000000	0.000000	0.000000	0.000000	0.000000	0.000000	0.000000	0.000000	0.000000	0.000000	0.000000	0.000000	0.000000	0.000000	0.000000	0.000000	0.000000	0.000000	11.630998	508.432848	-73.972703	0.199030	0.000000	-1.070702	0.000000	5.106135	0.000000	-7.384526	517.647959	71.376535	0.207654	0.000000	-1.394315	-0.000000	-6.853541	-0.000000
5.492500	0.000000	0.000000	0.000000	0.000000	0.000000	0.000000	0.000000	0.000000	0.000000	0.000000	0.000000	0.000000	0.000000	0.000000	0.000000	0.000000	0.000000	0.000000	0.000000	0.000000	0.000000	0.000000	0.000000	0.000000	0.000000	0.000000	0.000000	11.633535	508.448093	-73.932794	0.199036	0.000000	-1.070705	0.000000	5.109452	0.000000	-7.361913	517.624567	71.345372	0.207658	0.000000	-1.394323	-0.000000	-6.849570	-0.000000
5.493000	0.000000	0.000000	0.000000	0.000000	0.000000	0.000000	0.000000	0.000000	0.000000	0.000000	0.000000	0.000000	0.000000	0.000000	0.000000	0.000000	0.000000	0.000000	0.000000	0.000000	0.000000	0.000000	0.000000	0.000000	0.000000	0.000000	0.000000	11.635818	508.467066	-73.893894	0.199042	0.000000	-1.070709	0.000000	5.112797	0.000000	-7.337173	517.599906	71.314469	0.207662	0.000000	-1.394331	-0.000000	-6.845578	-0.000000
5.493500	0.000000	0.000000	0.000000	0.000000	0.000000	0.000000	0.000000	0.000000	0.000000	0.000000	0.000000	0.000000	0.000000	0.000000	0.000000	0.000000	0.000000	0.000000	0.000000	0.000000	0.000000	0.000000	0.000000	0.000000	0.000000	0.000000	0.000000	11.637854	508.489730	-73.856064	0.199048	0.000000	-1.070714	0.000000	5.116177	0.000000	-7.310373	517.573922	71.283886	0.207664	0.000000	-1.394339	-0.000000	-6.841565	-0.000000
5.494000	0.000000	0.000000	0.000000	0.000000	0.000000	0.000000	0.000000	0.000000	0.000000	0.000000	0.000000	0.000000	0.000000	0.000000	0.000000	0.000000	0.000000	0.000000	0.000000	0.000000	0.000000	0.000000	0.000000	0.000000	0.000000	0.000000	0.000000	11.639646	508.516070	-73.819360	0.199053	0.000000	-1.070719	0.000000	5.119599	0.000000	-7.281585	517.546572	71.253679	0.207666	0.000000	-1.394346	-0.000000	-6.837530	-0.000000
5.494500	0.000000	0.000000	0.000000	0.000000	0.000000	0.000000	0.000000	0.000000	0.000000	0.000000	0.000000	0.000000	0.000000	0.000000	0.000000	0.000000	0.000000	0.000000	0.000000	0.000000	0.000000	0.000000	0.000000	0.000000	0.000000	0.000000	0.000000	11.641187	508.546084	-73.783822	0.199057	0.000000	-1.070724	0.000000	5.123066	0.000000	-7.250887	517.517818	71.223901	0.207667	0.000000	-1.394354	-0.000000	-6.833467	-0.000000
5.495000	0.000000	0.000000	0.000000	0.000000	0.000000	0.000000	0.000000	0.000000	0.000000	0.000000	0.000000	0.000000	0.000000	0.000000	0.000000	0.000000	0.000000	0.000000	0.000000	0.000000	0.000000	0.000000	0.000000	0.000000	0.000000	0.000000	0.000000	11.642471	508.579778	-73.749483	0.199061	0.000000	-1.070730	0.000000	5.126579	0.000000	-7.218358	517.487623	71.194599	0.207667	0.000000	-1.394362	-0.000000	-6.829376	-0.000000
5.495500	0.000000	0.000000	0.000000	0.000000	0.000000	0.000000	0.000000	0.000000	0.000000	0.000000	0.000000	0.000000	0.000000	0.000000	0.000000	0.000000	0.000000	0.000000	0.000000	0.000000	0.000000	0.000000	0.000000	0.000000	0.000000	0.000000	0.000000	11.643488	508.617155	-73.716361	0.199065	0.000000	-1.070736	0.000000	5.130139	0.000000	-7.184081	517.455958	71.165815	0.207666	0.000000	-1.394369	-0.000000	-6.825255	-0.000000
5.496000	0.000000	0.000000	0.000000	0.000000	0.000000	0.000000	0.000000	0.000000	0.000000	0.000000	0.000000	0.000000	0.000000	0.000000	0.000000	0.000000	0.000000	0.000000	0.000000	0.000000	0.000000	0.000000	0.000000	0.000000	0.000000	0.000000	0.000000	11.644231	508.658205	-73.684467	0.199068	0.000000	-1.070742	0.000000	5.133746	0.000000	-7.148137	517.422802	71.137589	0.207664	0.000000	-1.394377	-0.000000	-6.821105	-0.000000
5.496500	0.000000	0.000000	0.000000	0.000000	0.000000	0.000000	0.000000	0.000000	0.000000	0.000000	0.000000	0.000000	0.000000	0.000000	0.000000	0.000000	0.000000	0.000000	0.000000	0.000000	0.000000	0.000000	0.000000	0.000000	0.000000	0.000000	0.000000	11.644689	508.702898	-73.653808	0.199070	0.000000	-1.070749	0.000000	5.137399	0.000000	-7.110604	517.388137	71.109955	0.207662	0.000000	-1.394384	-0.000000	-6.816926	-0.000000
5.497000	0.000000	0.000000	0.000000	0.000000	0.000000	0.000000	0.000000	0.000000	0.000000	0.000000	0.000000	0.000000	0.000000	0.000000	0.000000	0.000000	0.000000	0.000000	0.000000	0.000000	0.000000	0.000000	0.000000	0.000000	0.000000	0.000000	0.000000	11.644854	508.751185	-73.624389	0.199072	0.000000	-1.070756	0.000000	5.141097	0.000000	-7.071557	517.351932	71.082943	0.207658	0.000000	-1.394391	-0.000000	-6.812720	-0.000000
5.497500	0.000000	0.000000	0.000000	0.000000	0.000000	0.000000	0.000000	0.000000	0.000000	0.000000	0.000000	0.000000	0.000000	0.000000	0.000000	0.000000	0.000000	0.000000	0.000000	0.000000	0.000000	0.000000	0.000000	0.000000	0.000000	0.000000	0.000000	11.644716	508.802995	-73.596218	0.199073	0.000000	-1.070763	0.000000	5.144839	0.000000	-7.031064	517.314146	71.056575	0.207654	0.000000	-1.394398	-0.000000	-6.808490	-0.000000
5.498000	0.000000	0.000000	0.000000	0.000000	0.000000	0.000000	0.000000	0.000000	0.000000	0.000000	0.000000	0.000000	0.000000	0.000000	0.000000	0.000000	0.000000	0.000000	0.000000	0.000000	0.000000	0.000000	0.000000	0.000000	0.000000	0.000000	0.000000	11.644268	508.858244	-73.569310	0.199074	0.000000	-1.070769	0.000000	5.148622	0.000000	-6.989193	517.274733	71.030870	0.207649	0.000000	-1.394405	-0.000000	-6.804237	-0.000000
5.498500	0.000000	0.000000	0.000000	0.000000	0.000000	0.000000	0.000000	0.000000	0.000000	0.000000	0.000000	0.000000	0.000000	0.000000	0.000000	0.000000	0.000000	0.000000	0.000000	0.000000	0.000000	0.000000	0.000000	0.000000	0.000000	0.000000	0.000000	11.643506	508.916842	-73.543682	0.199074	0.000000	-1.070776	0.000000	5.152443	0.000000	-6.946013	517.233646	71.005846	0.207644	0.000000	-1.394412	-0.000000	-6.799964	-0.000000
5.499000	0.000000	0.000000	0.000000	0.000000	0.000000	0.000000	0.000000	0.000000	0.000000	0.000000	0.000000	0.000000	0.000000	0.000000	0.000000	0.000000	0.000000	0.000000	0.000000	0.000000	0.000000	0.000000	0.000000	0.000000	0.000000	0.000000	0.000000	11.642424	508.978698	-73.519351	0.199074	0.000000	-1.070784	0.000000	5.156299	0.000000	-6.901595	517.190842	70.981520	0.207637	0.000000	-1.394418	-0.000000	-6.795672	-0.000000
5.499500	0.000000	0.000000	0.000000	0.000000	0.000000	0.000000	0.000000	0.000000	0.000000	0.000000	0.000000	0.000000	0.000000	0.000000	0.000000	0.000000	0.000000	0.000000	0.000000	0.000000	0.000000	0.000000	0.000000	0.000000	0.000000	0.000000	0.000000	11.641017	509.043727	-73.496337	0.199074	0.000000	-1.070791	0.000000	5.160184	0.000000	-6.856016	517.146281	70.957906	0.207630	0.000000	-1.394425	-0.000000	-6.791362	-0.000000
5.500000	0.000000	0.000000	0.000000	0.000000	0.000000	0.000000	0.000000	0.000000	0.000000	0.000000	0.000000	0.000000	0.000000	0.000000	0.000000	0.000000	0.000000	0.000000	0.000000	0.000000	0.000000	0.000000	0.000000	0.000000	0.000000	0.000000	0.000000	11.639280	509.111839	-73.474661	0.199073	0.000000	-1.070798	0.000000	5.164092	0.000000	-6.809355	517.099929	70.935021	0.207623	0.000000	-1.394431	-0.000000	-6.787038	-0.000000
